<svg width="40" height="38" viewBox="0 0 40 38" fill="none" xmlns="http://www.w3.org/2000/svg">
<path d="M14.9999 36.6667C15.9204 36.6667 16.6666 35.9205 16.6666 35C16.6666 34.0795 15.9204 33.3333 14.9999 33.3333C14.0794 33.3333 13.3333 34.0795 13.3333 35C13.3333 35.9205 14.0794 36.6667 14.9999 36.6667Z" stroke="black" stroke-width="2" stroke-linecap="round" stroke-linejoin="round"/>
<path d="M33.3334 36.6667C34.2539 36.6667 35.0001 35.9205 35.0001 35C35.0001 34.0795 34.2539 33.3333 33.3334 33.3333C32.4129 33.3333 31.6667 34.0795 31.6667 35C31.6667 35.9205 32.4129 36.6667 33.3334 36.6667Z" stroke="black" stroke-width="2" stroke-linecap="round" stroke-linejoin="round"/>
<path d="M1.66675 1.66666H8.33341L12.8001 23.9833C12.9525 24.7507 13.3699 25.4399 13.9793 25.9305C14.5887 26.4211 15.3512 26.6816 16.1334 26.6667H32.3334C33.1156 26.6816 33.8781 26.4211 34.4875 25.9305C35.0969 25.4399 35.5143 24.7507 35.6667 23.9833L38.3334 9.99999H10.0001" stroke="black" stroke-width="2" stroke-linecap="round" stroke-linejoin="round"/>
</svg>
