<svg width="24" height="22" viewBox="0 0 24 22" fill="none" xmlns="http://www.w3.org/2000/svg">
<path d="M20.8399 3.60999C20.3291 3.099 19.7227 2.69364 19.0552 2.41708C18.3878 2.14052 17.6724 1.99817 16.9499 1.99817C16.2274 1.99817 15.512 2.14052 14.8445 2.41708C14.1771 2.69364 13.5706 3.099 13.0599 3.60999L11.9999 4.66999L10.9399 3.60999C9.90818 2.5783 8.50891 1.9987 7.04988 1.9987C5.59084 1.9987 4.19157 2.5783 3.15987 3.60999C2.12818 4.64169 1.54858 6.04096 1.54858 7.49999C1.54858 8.95903 2.12818 10.3583 3.15987 11.39L4.21987 12.45L11.9999 20.23L19.7799 12.45L20.8399 11.39C21.3509 10.8792 21.7562 10.2728 22.0328 9.60535C22.3094 8.93789 22.4517 8.22248 22.4517 7.49999C22.4517 6.77751 22.3094 6.0621 22.0328 5.39464C21.7562 4.72718 21.3509 4.12075 20.8399 3.60999V3.60999Z" stroke="black" stroke-width="2" stroke-linecap="round" stroke-linejoin="round"/>
</svg>
