<svg width="30" height="30" viewBox="0 0 30 30" fill="none" xmlns="http://www.w3.org/2000/svg">
<path d="M15 0.9375C12.2187 0.9375 9.4999 1.76225 7.18733 3.30746C4.87476 4.85267 3.07234 7.04893 2.00798 9.61851C0.943624 12.1881 0.665139 15.0156 1.20774 17.7435C1.75035 20.4713 3.08967 22.977 5.05635 24.9437C7.02302 26.9104 9.52872 28.2497 12.2566 28.7923C14.9844 29.3349 17.8119 29.0564 20.3815 27.9921C22.9511 26.9277 25.1474 25.1253 26.6926 22.8127C28.2378 20.5001 29.0625 17.7813 29.0625 15C29.0583 11.2717 27.5754 7.69729 24.9391 5.06097C22.3028 2.42465 18.7283 0.941718 15 0.9375ZM15 28.125C13.3756 28.126 11.7652 27.824 10.2516 27.2344L11.0278 24.5156C12.2861 25.0415 13.6363 25.3123 15 25.3123C16.3638 25.3123 17.7139 25.0415 18.9722 24.5156L19.7485 27.2344C18.2348 27.824 16.6245 28.126 15 28.125ZM5.62504 15C5.62504 13.1458 6.17487 11.3332 7.20501 9.79153C8.23515 8.24982 9.69932 7.0482 11.4124 6.33863C13.1254 5.62906 15.0104 5.4434 16.829 5.80514C18.6476 6.16687 20.318 7.05976 21.6292 8.37087C22.9403 9.68199 23.8332 11.3525 24.1949 13.171C24.5566 14.9896 24.371 16.8746 23.6614 18.5877C22.9518 20.3007 21.7502 21.7649 20.2085 22.795C18.6668 23.8252 16.8542 24.375 15 24.375C12.5145 24.3721 10.1316 23.3835 8.37406 21.626C6.61653 19.8684 5.62789 17.4855 5.62504 15ZM20.6171 26.8594L19.831 24.1073C21.4719 23.238 22.8475 21.9413 23.8123 20.3546C24.7771 18.7678 25.2952 16.9499 25.3119 15.0929C25.3287 13.2359 24.8433 11.4089 23.9073 9.80506C22.9712 8.20119 21.6192 6.88003 19.9941 5.98125L21.4252 4.55016L20.7624 3.88734L19.1068 5.54297C17.127 4.68141 14.9266 4.46337 12.8162 4.91964C10.7059 5.3759 8.79209 6.48342 7.34503 8.08587C5.89797 9.68832 4.99071 11.7048 4.75132 13.8506C4.51192 15.9964 4.95249 18.1632 6.01082 20.0452L4.35613 21.6998L5.01894 22.3627L6.52129 20.8627C7.46193 22.2195 8.71242 23.3326 10.1691 24.1097L9.38301 26.8594C8.06681 26.2327 6.86374 25.3919 5.82285 24.3713L6.89394 23.3002L6.23113 22.6373L5.17691 23.6916C3.27874 21.5461 2.13478 18.8385 1.91968 15.982C1.70458 13.1255 2.43015 10.2771 3.98562 7.87158C5.5411 5.46609 7.84101 3.6357 10.5343 2.65984C13.2275 1.68398 16.1661 1.61626 18.9014 2.46703L17.4811 3.88734L18.1439 4.55016L19.8783 2.81578C22.25 3.76371 24.2934 5.38327 25.7578 7.47578C27.2223 9.56829 28.0442 12.0428 28.1226 14.5956C28.2011 17.1485 27.5326 19.6687 26.1994 21.8472C24.8662 24.0257 22.926 25.7676 20.6171 26.8594Z" fill="black"/>
<path d="M11.8495 25.8033L11.588 26.7033C13.8202 27.3498 16.1903 27.3487 18.4219 26.7L18.1589 25.8C16.0982 26.396 13.9109 26.3971 11.8495 25.8033Z" fill="black"/>
<path d="M26.25 15H27.1875C27.195 12.3618 26.3389 9.7936 24.75 7.6875L24 8.25C25.4672 10.1939 26.2574 12.5647 26.25 15Z" fill="black"/>
<path d="M26.25 15.9375H27.1875V16.875H26.25V15.9375Z" fill="black"/>
</svg>
