<svg width="30" height="26" viewBox="0 0 30 26" fill="none" xmlns="http://www.w3.org/2000/svg">
<path d="M22.5002 21.5005C22.7762 21.5005 23.0002 21.2765 23.0002 21.0006V19.1151L29.9502 4.71746C30.0587 4.49299 29.9847 4.22246 29.7772 4.08394L28.2772 3.08391C28.2241 3.0484 28.1641 3.02339 28.1017 3.01044L16.1016 0.510397C16.0056 0.48942 15.905 0.498912 15.8136 0.535416L11.2415 2.3649L10.9475 1.77638C10.836 1.55437 10.579 1.4479 10.342 1.52589L7.54195 2.45942C6.73997 1.55642 5.67344 1.00042 4.49992 1.00042C2.01904 1.00036 0 3.46788 0 6.50042C0 6.7764 0.224006 7.00041 0.499984 7.00041H8.50003C8.77601 7.00041 9.00001 6.7764 9.00001 6.50042C9.00001 6.12044 8.96849 5.74989 8.90802 5.39141L11.658 4.47488C11.7955 4.42888 11.9065 4.32588 11.9615 4.19187C12.017 4.05787 12.0115 3.90634 11.9471 3.77685L11.6901 3.26286L13.7536 2.43733L15.2226 3.41632C15.2736 3.44983 15.3296 3.47433 15.3891 3.4878L25.7772 5.8488L19.5491 18.784C19.5171 18.851 19.5002 18.925 19.5002 19.0005V21.0005C19.5002 21.2765 19.7242 21.5005 20.0001 21.5005H21.0002V22.5005H14.5001C14.2706 22.5005 14.0706 22.657 14.0151 22.879L13.5152 24.879C13.4777 25.0285 13.5116 25.1865 13.6062 25.3081C13.7007 25.4296 13.8462 25.5005 14.0001 25.5005H24.5002C24.6542 25.5005 24.7997 25.4295 24.8942 25.3081C24.9887 25.1865 25.0227 25.0286 24.9852 24.879L24.4852 22.879C24.4297 22.6565 24.2297 22.5005 24.0002 22.5005H22.0002V21.5005H22.5002V21.5005ZM1.02153 6.00044C1.21554 3.75341 2.70154 2.00039 4.50004 2.00039C6.29853 2.00039 7.78453 3.75341 7.97854 6.00044H1.02153ZM8.6631 4.41892C8.53009 4.02294 8.35911 3.65193 8.1576 3.30839L10.2471 2.61188L10.7952 3.70841L8.6631 4.41892ZM22.6882 4.12091L15.7006 2.53342L14.8806 1.98644L16.0456 1.52044L24.1727 3.21346L22.7427 4.07146C22.7207 4.08441 22.7072 4.10539 22.6882 4.12091ZM24.0777 4.43691L25.6157 3.51388L27.8038 3.96986L28.2448 4.26388L26.4592 4.97791L24.0777 4.43691ZM23.6097 23.5005L23.8597 24.5006H14.6406L14.8907 23.5005H23.6097ZM20.5002 20.5005V19.1145L26.8667 5.89245L28.6097 5.19547L22.0502 18.783C22.0177 18.8505 22.0002 18.925 22.0002 19.0005V20.5005H20.5002Z" fill="black"/>
</svg>
