<svg width="30" height="26" viewBox="0 0 30 26" fill="none" xmlns="http://www.w3.org/2000/svg">
<path d="M25.5469 1.28125H4.45312C1.99764 1.28125 0 3.27889 0 5.73438V20.2656C0 22.7211 1.99764 24.7188 4.45312 24.7188H25.5469C28.0024 24.7188 30 22.7211 30 20.2656V15.3438V10.6562V5.73438C30 3.27889 28.0024 1.28125 25.5469 1.28125ZM25.5469 22.8438H4.45312C3.03152 22.8438 1.875 21.6872 1.875 20.2656V5.73438C1.875 4.31277 3.03152 3.15625 4.45312 3.15625H25.5469C26.9685 3.15625 28.125 4.31277 28.125 5.73438V9.71875H22.9688C21.1595 9.71875 19.6875 11.1907 19.6875 13C19.6875 14.8093 21.1595 16.2812 22.9688 16.2812H28.125V20.2656C28.125 21.6872 26.9685 22.8438 25.5469 22.8438ZM28.125 14.4062H22.9688C22.1933 14.4062 21.5625 13.7754 21.5625 13C21.5625 12.2246 22.1933 11.5938 22.9688 11.5938H28.125V14.4062Z" fill="black" stroke="#F8F8F8"/>
</svg>
