<svg width="28" height="30" viewBox="0 0 28 30" fill="none" xmlns="http://www.w3.org/2000/svg">
<path d="M26.2254 7.97183H24.4225C24.169 7.97183 23.9437 8.05634 23.7465 8.19718C22.9296 3.46479 18.8169 0 14.0282 0C9.23944 0 5.12676 3.46479 4.25352 8.19718C4.05634 8.05634 3.83099 7.97183 3.57747 7.97183H1.77465C1.46479 8 1.1831 8.11268 0.957749 8.33803C0.732396 8.56338 0.61972 8.84507 0.61972 9.15493C0.61972 9.46479 0.732396 9.74648 0.957749 9.97183C1.1831 10.1972 1.46479 10.3099 1.77465 10.3099H2.25352C2.47888 16.0563 6.8169 20.7887 12.507 21.5211V26.9577H9.49296C8.05634 26.9577 6.90141 28.1127 6.90141 29.5493C6.90141 29.8028 7.09859 30 7.35212 30H20.6197C20.8732 30 21.0704 29.8028 21.0704 29.5493C21.0704 28.1127 19.9155 26.9577 18.4789 26.9577H15.4366V21.493C21.1549 20.7887 25.5211 16.0282 25.7465 10.2817H26.2254C26.5352 10.2817 26.8169 10.169 27.0423 9.94366C27.2676 9.71831 27.3803 9.43662 27.3803 9.12676C27.3803 8.50704 26.8732 7.97183 26.2254 7.97183ZM7.69014 3.57746C11.2113 0 16.8732 0 20.3944 3.57746C22.0563 5.29577 23.0141 7.6338 23.0141 10.0845C23.0141 12.507 22.0845 14.8451 20.3944 16.5634C16.8732 20.1408 11.2113 20.169 7.69014 16.5634C4.16902 12.9577 4.16902 7.15493 7.69014 3.57746ZM1.83099 9.43662C1.74648 9.43662 1.66197 9.40845 1.63381 9.35211C1.57747 9.29578 1.5493 9.23944 1.5493 9.15493C1.5493 9.07042 1.57747 9.01408 1.63381 8.95775C1.69014 8.90141 1.74648 8.87324 1.83099 8.87324H3.63381C3.80282 8.87324 3.9155 8.98592 3.9155 9.15493C3.9155 9.23944 3.88733 9.29578 3.83099 9.35211C3.77465 9.40845 3.71831 9.43662 3.63381 9.43662H1.83099ZM18.4789 27.8592C19.2676 27.8873 19.9437 28.3944 20.1408 29.1549H7.85916C8.05634 28.3944 8.7324 27.8592 9.52113 27.8592H15.0141H18.4789ZM13.4085 21.5493C13.6056 21.5775 13.8028 21.5775 14 21.5775C14.1972 21.5775 14.3662 21.5775 14.5634 21.5775L14.5916 26.9296H13.4085V21.5493ZM14.5916 20.5915C8.59155 20.9014 3.49296 16.3099 3.1831 10.3099H3.63381C3.83099 10.3099 4 10.2535 4.16902 10.169C4.16902 15.6056 8.59155 20.0282 14.0282 20.0282C19.4648 20.0282 23.8873 15.6056 23.8873 10.169C24.0563 10.2535 24.2254 10.3099 24.4225 10.3099H24.8732C24.5916 15.8592 20.1408 20.3099 14.5916 20.5915ZM26.4225 9.35211C26.3662 9.40845 26.3099 9.43662 26.2254 9.43662H24.4225C24.338 9.43662 24.2817 9.38028 24.2254 9.35211C24.169 9.29578 24.1408 9.23944 24.1408 9.15493C24.1408 9.07042 24.169 9.01408 24.2254 8.95775C24.2817 8.90141 24.3662 8.87324 24.4225 8.87324H26.2254C26.3944 8.87324 26.507 8.98592 26.507 9.15493C26.507 9.23944 26.4789 9.29578 26.4225 9.35211Z" fill="black"/>
</svg>
