<svg width="30" height="30" viewBox="0 0 30 30" fill="none" xmlns="http://www.w3.org/2000/svg">
<g clip-path="url(#clip0)">
<path d="M22.4985 11.865C22.6255 11.7435 22.677 11.5631 22.6336 11.3932C22.5899 11.223 22.458 11.0896 22.2885 11.0443C22.1191 10.9988 21.938 11.0484 21.8153 11.1737C20.9189 12.0603 18.7079 12.4913 15.0536 12.4913C11.3994 12.4913 9.18839 12.0603 8.29198 11.1737C8.16928 11.0484 7.98843 10.9988 7.81874 11.0443C7.64928 11.0896 7.51733 11.223 7.47389 11.3932C7.43022 11.5631 7.48173 11.7435 7.6087 11.865C8.71064 12.9556 11.0761 13.4635 15.0536 13.4635C19.0311 13.4635 21.3968 12.9556 22.4985 11.865Z" fill="black"/>
<path d="M25.2307 26.7363C25.2488 26.6886 25.259 26.6381 25.2609 26.5871V22.2125C25.2609 21.9441 25.0432 21.7265 24.7748 21.7265H16.5118V17.838H16.9979C17.2663 17.838 17.4839 17.6206 17.4839 17.3519V16.3093C21.632 16.0397 25.2609 14.8576 25.2609 10.5471C25.2609 8.31143 23.0356 3.19712 20.4976 1.58136C17.1728 -0.527114 12.9297 -0.527114 9.60492 1.58136C7.07162 3.19712 4.84638 8.31143 4.84638 10.5471C4.84638 14.8576 8.47545 16.0397 12.6233 16.3093V17.3519C12.6233 17.6206 12.841 17.838 13.1094 17.838H13.5954V21.7265H5.33244C5.06401 21.7265 4.84638 21.9441 4.84638 22.2125V26.5871C4.84852 26.6381 4.85848 26.6886 4.87652 26.7363C4.16143 27.5105 4.19324 28.7133 4.94796 29.4486C5.70292 30.1839 6.9062 30.1839 7.66116 29.4486C8.41611 28.7133 8.44768 27.5105 7.73259 26.7363C7.75063 26.6886 7.76084 26.6381 7.76273 26.5871V24.6428H13.5954V26.5871C13.5976 26.6381 13.6075 26.6886 13.6256 26.7363C12.9105 27.5105 12.9423 28.7133 13.697 29.4486C14.452 30.1839 15.6553 30.1839 16.4102 29.4486C17.1652 28.7133 17.1967 27.5105 16.4817 26.7363C16.4997 26.6886 16.5099 26.6381 16.5118 26.5871V24.6428H22.3445V26.5871C22.3466 26.6381 22.3566 26.6886 22.3747 26.7363C21.6596 27.5105 21.6914 28.7133 22.4461 29.4486C23.201 30.1839 24.4043 30.1839 25.1593 29.4486C25.9142 28.7133 25.9458 27.5105 25.2307 26.7363ZM5.8185 10.5471C5.8185 8.56419 7.94904 3.79093 10.1294 2.40135C13.1355 0.495319 16.9718 0.495319 19.9778 2.40135C22.1584 3.79093 24.2887 8.56419 24.2887 10.5471C24.2887 14.5815 20.5947 15.4077 15.0536 15.4077C9.5126 15.4077 5.8185 14.5815 5.8185 10.5471ZM16.5118 16.3798V16.8659H13.5954V16.3798H16.5118ZM14.5676 17.838H15.5397V21.7265H14.5676V17.838ZM15.5397 22.6986V23.6707H14.5676V22.6986H15.5397ZM6.30456 29.0174C5.76771 29.0174 5.33244 28.5823 5.33244 28.0452C5.33244 27.5084 5.76771 27.0731 6.30456 27.0731C6.84141 27.0731 7.27668 27.5084 7.27668 28.0452C7.27668 28.5823 6.84141 29.0174 6.30456 29.0174ZM7.27668 23.6707C7.00825 23.6707 6.79062 23.8883 6.79062 24.1568V26.101H5.8185V22.6986H13.5954V23.6707H7.27668ZM15.0536 29.0174C14.5168 29.0174 14.0815 28.5823 14.0815 28.0452C14.0815 27.5084 14.5168 27.0731 15.0536 27.0731C15.5905 27.0731 16.0257 27.5084 16.0257 28.0452C16.0257 28.5823 15.5905 29.0174 15.0536 29.0174ZM15.5397 26.101H14.5676V24.6428H15.5397V26.101ZM16.5118 23.6707V22.6986H24.2887V26.101H23.3166V24.1568C23.3166 23.8883 23.099 23.6707 22.8306 23.6707H16.5118ZM23.8027 29.0174C23.2658 29.0174 22.8306 28.5823 22.8306 28.0452C22.8306 27.5084 23.2658 27.0731 23.8027 27.0731C24.3395 27.0731 24.7748 27.5084 24.7748 28.0452C24.7748 28.5823 24.3395 29.0174 23.8027 29.0174Z" fill="black"/>
</g>
<defs>
<clipPath id="clip0">
<rect width="30" height="30" fill="white"/>
</clipPath>
</defs>
</svg>
