<svg width="26" height="28" viewBox="0 0 26 28" fill="none" xmlns="http://www.w3.org/2000/svg">
<path d="M0.34375 2.39844V25.3672C0.344417 25.9575 0.579215 26.5235 0.996632 26.9409C1.41405 27.3583 1.98 27.5931 2.57031 27.5938H23.4297C24.02 27.5931 24.586 27.3583 25.0034 26.9409C25.4208 26.5235 25.6556 25.9575 25.6562 25.3672V2.39844C25.6557 1.87026 25.4456 1.36388 25.0721 0.990399C24.6986 0.616919 24.1922 0.406839 23.6641 0.40625H2.33594C1.80776 0.406839 1.30138 0.616919 0.927899 0.990399C0.554419 1.36388 0.344339 1.87026 0.34375 2.39844ZM1.28125 2.39844C1.28158 2.11882 1.3928 1.85074 1.59052 1.65302C1.78824 1.4553 2.05632 1.34408 2.33594 1.34375H23.6641C23.9437 1.34408 24.2118 1.4553 24.4095 1.65302C24.6072 1.85074 24.7184 2.11882 24.7188 2.39844V25.3672C24.7184 25.709 24.5824 26.0366 24.3408 26.2783C24.0991 26.5199 23.7715 26.6559 23.4297 26.6562H2.57031C2.22855 26.6559 1.9009 26.5199 1.65924 26.2783C1.41757 26.0366 1.28164 25.709 1.28125 25.3672V2.39844Z" fill="black"/>
<path d="M13 6.03124C13.3708 6.03124 13.7334 5.92127 14.0417 5.71524C14.35 5.50921 14.5904 5.21638 14.7323 4.87377C14.8742 4.53116 14.9113 4.15416 14.839 3.79044C14.7666 3.42673 14.5881 3.09263 14.3258 2.83041C14.0636 2.56819 13.7295 2.38961 13.3658 2.31726C13.0021 2.24492 12.6251 2.28205 12.2825 2.42396C11.9399 2.56588 11.647 2.8062 11.441 3.11454C11.235 3.42288 11.125 3.7854 11.125 4.15624C11.1256 4.65335 11.3233 5.12993 11.6748 5.48144C12.0263 5.83295 12.5029 6.03068 13 6.03124ZM13 3.21874C13.1854 3.21874 13.3667 3.27372 13.5209 3.37673C13.675 3.47975 13.7952 3.62616 13.8661 3.79747C13.9371 3.96878 13.9557 4.15728 13.9195 4.33913C13.8833 4.52099 13.794 4.68804 13.6629 4.81915C13.5318 4.95026 13.3648 5.03955 13.1829 5.07572C13.001 5.1119 12.8125 5.09333 12.6412 5.02237C12.4699 4.95142 12.3235 4.83125 12.2205 4.67708C12.1175 4.52291 12.0625 4.34166 12.0625 4.15624C12.0628 3.90769 12.1617 3.6694 12.3374 3.49365C12.5132 3.3179 12.7515 3.21903 13 3.21874Z" fill="black"/>
<path d="M7.375 6.03124C7.74584 6.03124 8.10835 5.92127 8.41669 5.71524C8.72504 5.50921 8.96536 5.21638 9.10727 4.87377C9.24919 4.53116 9.28632 4.15416 9.21397 3.79044C9.14163 3.42673 8.96305 3.09263 8.70082 2.83041C8.4386 2.56819 8.10451 2.38961 7.74079 2.31726C7.37708 2.24492 7.00008 2.28205 6.65747 2.42396C6.31486 2.56588 6.02202 2.8062 5.81599 3.11454C5.60997 3.42288 5.5 3.7854 5.5 4.15624C5.50056 4.65335 5.69828 5.12993 6.04979 5.48144C6.4013 5.83295 6.87789 6.03068 7.375 6.03124ZM7.375 3.21874C7.56042 3.21874 7.74168 3.27372 7.89585 3.37673C8.05002 3.47975 8.17018 3.62616 8.24114 3.79747C8.31209 3.96878 8.33066 4.15728 8.29449 4.33913C8.25831 4.52099 8.16902 4.68804 8.03791 4.81915C7.9068 4.95026 7.73975 5.03955 7.5579 5.07572C7.37604 5.1119 7.18754 5.09333 7.01623 5.02237C6.84493 4.95142 6.69851 4.83125 6.5955 4.67708C6.49248 4.52291 6.4375 4.34166 6.4375 4.15624C6.43779 3.90769 6.53666 3.6694 6.71241 3.49365C6.88816 3.3179 7.12645 3.21903 7.375 3.21874Z" fill="black"/>
<path d="M18.625 6.03124C18.9958 6.03124 19.3584 5.92127 19.6667 5.71524C19.975 5.50921 20.2154 5.21638 20.3573 4.87377C20.4992 4.53116 20.5363 4.15416 20.464 3.79044C20.3916 3.42673 20.2131 3.09263 19.9508 2.83041C19.6886 2.56819 19.3545 2.38961 18.9908 2.31726C18.6271 2.24492 18.2501 2.28205 17.9075 2.42396C17.5649 2.56588 17.272 2.8062 17.066 3.11454C16.86 3.42288 16.75 3.7854 16.75 4.15624C16.7506 4.65335 16.9483 5.12993 17.2998 5.48144C17.6513 5.83295 18.1279 6.03068 18.625 6.03124ZM18.625 3.21874C18.8104 3.21874 18.9917 3.27372 19.1459 3.37673C19.3 3.47975 19.4202 3.62616 19.4911 3.79747C19.5621 3.96878 19.5807 4.15728 19.5445 4.33913C19.5083 4.52099 19.419 4.68804 19.2879 4.81915C19.1568 4.95026 18.9898 5.03955 18.8079 5.07572C18.626 5.1119 18.4375 5.09333 18.2662 5.02237C18.0949 4.95142 17.9485 4.83125 17.8455 4.67708C17.7425 4.52291 17.6875 4.34166 17.6875 4.15624C17.6878 3.90769 17.7867 3.6694 17.9624 3.49365C18.1382 3.3179 18.3765 3.21903 18.625 3.21874Z" fill="black"/>
<path d="M5.5 25.7188H20.5C21.2457 25.7179 21.9605 25.4213 22.4878 24.8941C23.0151 24.3668 23.3117 23.6519 23.3125 22.9062V9.78125C23.3117 9.03559 23.0151 8.3207 22.4878 7.79344C21.9605 7.26617 21.2457 6.96959 20.5 6.96875H5.5C4.75434 6.96959 4.03945 7.26617 3.51219 7.79344C2.98492 8.3207 2.68834 9.03559 2.6875 9.78125V22.9062C2.68834 23.6519 2.98492 24.3668 3.51219 24.8941C4.03945 25.4213 4.75434 25.7179 5.5 25.7188ZM3.625 9.78125C3.62556 9.28414 3.82328 8.80755 4.17479 8.45604C4.5263 8.10453 5.00289 7.90681 5.5 7.90625H20.5C20.9971 7.90681 21.4737 8.10453 21.8252 8.45604C22.1767 8.80755 22.3744 9.28414 22.375 9.78125V22.9062C22.3744 23.4034 22.1767 23.8799 21.8252 24.2315C21.4737 24.583 20.9971 24.7807 20.5 24.7812H5.5C5.00289 24.7807 4.5263 24.583 4.17479 24.2315C3.82328 23.8799 3.62556 23.4034 3.625 22.9062V9.78125Z" fill="black"/>
<path d="M5.5 23.8438H20.5C20.7486 23.8435 20.9868 23.7446 21.1626 23.5688C21.3383 23.3931 21.4372 23.1548 21.4375 22.9062V9.78125C21.4372 9.5327 21.3383 9.29441 21.1626 9.11866C20.9868 8.94291 20.7486 8.84404 20.5 8.84375H5.5C5.25145 8.84404 5.01316 8.94291 4.83741 9.11866C4.66166 9.29441 4.56279 9.5327 4.5625 9.78125V22.9062C4.56279 23.1548 4.66166 23.3931 4.83741 23.5688C5.01316 23.7446 5.25145 23.8435 5.5 23.8438ZM5.5 9.78125H20.5L20.5006 22.9062H5.5V9.78125Z" fill="black"/>
<path d="M13 16.3438V15.4062C13 15.2819 12.9506 15.1627 12.8627 15.0748C12.7748 14.9869 12.6556 14.9375 12.5312 14.9375C12.4069 14.9375 12.2877 14.9869 12.1998 15.0748C12.1119 15.1627 12.0625 15.2819 12.0625 15.4062V16.3438C12.0625 16.4681 12.0131 16.5873 11.9252 16.6752C11.8373 16.7631 11.7181 16.8125 11.5938 16.8125C11.4694 16.8125 11.3502 16.7631 11.2623 16.6752C11.1744 16.5873 11.125 16.4681 11.125 16.3438V15.4062C11.125 15.2819 11.0756 15.1627 10.9877 15.0748C10.8998 14.9869 10.7806 14.9375 10.6562 14.9375C10.5319 14.9375 10.4127 14.9869 10.3248 15.0748C10.2369 15.1627 10.1875 15.2819 10.1875 15.4062V16.3438C10.1875 16.7167 10.3357 17.0744 10.5994 17.3381C10.8631 17.6018 11.2208 17.75 11.5938 17.75C11.9667 17.75 12.3244 17.6018 12.5881 17.3381C12.8518 17.0744 13 16.7167 13 16.3438Z" fill="black"/>
<path d="M16.0222 14.987C15.911 14.9314 15.7822 14.9223 15.6643 14.9616C15.5464 15.0009 15.4489 15.0854 15.3933 15.1966L14.875 16.2331L14.3567 15.1966C14.3006 15.0864 14.2031 15.0029 14.0856 14.9642C13.9681 14.9256 13.8401 14.9349 13.7295 14.9903C13.6189 15.0456 13.5346 15.1424 13.495 15.2596C13.4555 15.3768 13.4638 15.5048 13.5183 15.6159L14.4558 17.4909C14.4947 17.5687 14.5546 17.6342 14.6286 17.68C14.7026 17.7257 14.788 17.75 14.875 17.75C14.9621 17.75 15.0474 17.7257 15.1214 17.68C15.1955 17.6342 15.2553 17.5687 15.2942 17.4909L16.2317 15.6159C16.2873 15.5047 16.2965 15.376 16.2572 15.258C16.2179 15.1401 16.1333 15.0426 16.0222 14.987Z" fill="black"/>
<path d="M9.24998 18.6875H7.84373C7.71941 18.6875 7.60018 18.7369 7.51227 18.8248C7.42437 18.9127 7.37498 19.0319 7.37498 19.1563C7.37498 19.2806 7.42437 19.3998 7.51227 19.4877C7.60018 19.5756 7.71941 19.625 7.84373 19.625H8.1183L6.57477 21.1685C6.48686 21.2564 6.43747 21.3757 6.43747 21.5C6.43747 21.6243 6.48686 21.7436 6.57477 21.8315C6.66268 21.9194 6.78191 21.9688 6.90623 21.9688C7.03055 21.9688 7.14979 21.9194 7.2377 21.8315L8.78123 20.2879V20.5625C8.78123 20.6868 8.83062 20.806 8.91852 20.894C9.00643 20.9819 9.12566 21.0313 9.24998 21.0313C9.3743 21.0313 9.49353 20.9819 9.58144 20.894C9.66935 20.806 9.71873 20.6868 9.71873 20.5625V19.1563C9.71873 19.0319 9.66935 18.9127 9.58144 18.8248C9.49353 18.7369 9.3743 18.6875 9.24998 18.6875Z" fill="black"/>
<path d="M9.25001 11.6562C9.12569 11.6562 9.00646 11.7056 8.91856 11.7935C8.83065 11.8814 8.78126 12.0007 8.78126 12.125V12.3996L7.23773 10.856C7.14982 10.7681 7.03059 10.7187 6.90626 10.7187C6.78194 10.7187 6.66271 10.7681 6.5748 10.856C6.48689 10.9439 6.4375 11.0632 6.4375 11.1875C6.4375 11.3118 6.48689 11.4311 6.5748 11.519L8.11833 13.0625H7.84376C7.71944 13.0625 7.60021 13.1119 7.51231 13.1998C7.4244 13.2877 7.37501 13.4069 7.37501 13.5312C7.37501 13.6556 7.4244 13.7748 7.51231 13.8627C7.60021 13.9506 7.71944 14 7.84376 14H9.25001C9.37433 14 9.49356 13.9506 9.58147 13.8627C9.66938 13.7748 9.71876 13.6556 9.71876 13.5312V12.125C9.71876 12.0007 9.66938 11.8814 9.58147 11.7935C9.49356 11.7056 9.37433 11.6562 9.25001 11.6562Z" fill="black"/>
<path d="M17.8817 19.625H18.1563C18.2806 19.625 18.3998 19.5756 18.4877 19.4877C18.5756 19.3998 18.625 19.2806 18.625 19.1563C18.625 19.0319 18.5756 18.9127 18.4877 18.8248C18.3998 18.7369 18.2806 18.6875 18.1563 18.6875H16.75C16.6257 18.6875 16.5065 18.7369 16.4185 18.8248C16.3306 18.9127 16.2812 19.0319 16.2812 19.1563V20.5625C16.2812 20.6868 16.3306 20.806 16.4185 20.894C16.5065 20.9819 16.6257 21.0313 16.75 21.0313C16.8743 21.0313 16.9935 20.9819 17.0815 20.894C17.1694 20.806 17.2188 20.6868 17.2188 20.5625V20.2879L18.7623 21.8315C18.8502 21.9194 18.9694 21.9688 19.0938 21.9688C19.2181 21.9688 19.3373 21.9194 19.4252 21.8315C19.5131 21.7436 19.5625 21.6243 19.5625 21.5C19.5625 21.3757 19.5131 21.2564 19.4252 21.1685L17.8817 19.625Z" fill="black"/>
<path d="M18.7623 10.856L17.2188 12.3996V12.125C17.2188 12.0007 17.1694 11.8814 17.0815 11.7935C16.9935 11.7056 16.8743 11.6562 16.75 11.6562C16.6257 11.6562 16.5065 11.7056 16.4185 11.7935C16.3306 11.8814 16.2812 12.0007 16.2812 12.125V13.5312C16.2812 13.6556 16.3306 13.7748 16.4185 13.8627C16.5065 13.9506 16.6257 14 16.75 14H18.1563C18.2806 14 18.3998 13.9506 18.4877 13.8627C18.5756 13.7748 18.625 13.6556 18.625 13.5312C18.625 13.4069 18.5756 13.2877 18.4877 13.1998C18.3998 13.1119 18.2806 13.0625 18.1563 13.0625H17.8817L19.4252 11.519C19.5131 11.4311 19.5625 11.3118 19.5625 11.1875C19.5625 11.0632 19.5131 10.9439 19.4252 10.856C19.3373 10.7681 19.2181 10.7187 19.0938 10.7187C18.9694 10.7187 18.8502 10.7681 18.7623 10.856Z" fill="black"/>
<path d="M13 19.625C13.2589 19.625 13.4688 19.4151 13.4688 19.1562C13.4688 18.8974 13.2589 18.6875 13 18.6875C12.7411 18.6875 12.5312 18.8974 12.5312 19.1562C12.5312 19.4151 12.7411 19.625 13 19.625Z" fill="black"/>
<path d="M14.4062 21.5C14.6651 21.5 14.875 21.2901 14.875 21.0312C14.875 20.7724 14.6651 20.5625 14.4062 20.5625C14.1474 20.5625 13.9375 20.7724 13.9375 21.0312C13.9375 21.2901 14.1474 21.5 14.4062 21.5Z" fill="black"/>
<path d="M11.5938 21.5C11.8526 21.5 12.0625 21.2901 12.0625 21.0312C12.0625 20.7724 11.8526 20.5625 11.5938 20.5625C11.3349 20.5625 11.125 20.7724 11.125 21.0312C11.125 21.2901 11.3349 21.5 11.5938 21.5Z" fill="black"/>
<path d="M13 13.5312C13.2589 13.5312 13.4688 13.3214 13.4688 13.0625C13.4688 12.8036 13.2589 12.5938 13 12.5938C12.7411 12.5938 12.5312 12.8036 12.5312 13.0625C12.5312 13.3214 12.7411 13.5312 13 13.5312Z" fill="black"/>
<path d="M14.4062 11.6562C14.6651 11.6562 14.875 11.4464 14.875 11.1875C14.875 10.9286 14.6651 10.7188 14.4062 10.7188C14.1474 10.7188 13.9375 10.9286 13.9375 11.1875C13.9375 11.4464 14.1474 11.6562 14.4062 11.6562Z" fill="black"/>
<path d="M11.5938 11.6562C11.8526 11.6562 12.0625 11.4464 12.0625 11.1875C12.0625 10.9286 11.8526 10.7188 11.5938 10.7188C11.3349 10.7188 11.125 10.9286 11.125 11.1875C11.125 11.4464 11.3349 11.6562 11.5938 11.6562Z" fill="black"/>
<path d="M19.0938 16.8125C19.3526 16.8125 19.5625 16.6026 19.5625 16.3438C19.5625 16.0849 19.3526 15.875 19.0938 15.875C18.8349 15.875 18.625 16.0849 18.625 16.3438C18.625 16.6026 18.8349 16.8125 19.0938 16.8125Z" fill="black"/>
<path d="M17.2188 18.2188C17.4776 18.2188 17.6875 18.0089 17.6875 17.75C17.6875 17.4911 17.4776 17.2812 17.2188 17.2812C16.9599 17.2812 16.75 17.4911 16.75 17.75C16.75 18.0089 16.9599 18.2188 17.2188 18.2188Z" fill="black"/>
<path d="M17.2188 15.4062C17.4776 15.4062 17.6875 15.1964 17.6875 14.9375C17.6875 14.6786 17.4776 14.4688 17.2188 14.4688C16.9599 14.4688 16.75 14.6786 16.75 14.9375C16.75 15.1964 16.9599 15.4062 17.2188 15.4062Z" fill="black"/>
<path d="M6.90625 16.8125C7.16513 16.8125 7.375 16.6026 7.375 16.3438C7.375 16.0849 7.16513 15.875 6.90625 15.875C6.64737 15.875 6.4375 16.0849 6.4375 16.3438C6.4375 16.6026 6.64737 16.8125 6.90625 16.8125Z" fill="black"/>
<path d="M8.78125 18.2188C9.04013 18.2188 9.25 18.0089 9.25 17.75C9.25 17.4911 9.04013 17.2812 8.78125 17.2812C8.52237 17.2812 8.3125 17.4911 8.3125 17.75C8.3125 18.0089 8.52237 18.2188 8.78125 18.2188Z" fill="black"/>
<path d="M8.78125 15.4062C9.04013 15.4062 9.25 15.1964 9.25 14.9375C9.25 14.6786 9.04013 14.4688 8.78125 14.4688C8.52237 14.4688 8.3125 14.6786 8.3125 14.9375C8.3125 15.1964 8.52237 15.4062 8.78125 15.4062Z" fill="black"/>
</svg>
