<svg width="30" height="30" viewBox="0 0 30 30" fill="none" xmlns="http://www.w3.org/2000/svg">
<path d="M28.0699 15.2716C27.9271 14.881 27.641 14.5594 27.2698 14.3719C26.8985 14.1844 26.4699 14.1451 26.0707 14.262C25.8363 14.3323 25.5713 14.4063 25.2832 14.4841V0.410156C25.2832 0.301376 25.24 0.197051 25.1631 0.120132C25.0862 0.0432128 24.9818 0 24.8731 0H22.5293C22.4205 0 22.3162 0.0432128 22.2393 0.120132C22.1624 0.197051 22.1192 0.301376 22.1192 0.410156V1.58203H7.88087V0.410156C7.88087 0.301376 7.83766 0.197051 7.76074 0.120132C7.68382 0.0432128 7.57949 0 7.47071 0H5.12696C5.01818 0 4.91386 0.0432128 4.83694 0.120132C4.76002 0.197051 4.71681 0.301376 4.71681 0.410156V14.4844C4.42853 14.4063 4.16345 14.3311 3.92907 14.262C3.62207 14.1723 3.29556 14.1744 2.98972 14.2679C2.68387 14.3614 2.41202 14.5422 2.2076 14.7882C2.00318 15.0341 1.8751 15.3345 1.83912 15.6523C1.80314 15.9701 1.86083 16.2914 2.00509 16.5769C2.10417 16.7767 2.24351 16.9539 2.41437 17.0973C2.58523 17.2407 2.7839 17.3472 2.9979 17.4101C3.31946 17.5062 3.69165 17.6119 4.10813 17.722L12.0382 22.597L4.62024 27.1582C4.44321 27.2653 4.28975 27.4072 4.16917 27.5753C4.04859 27.7434 3.9634 27.9342 3.91876 28.1363C3.87468 28.3338 3.87117 28.5382 3.90843 28.7371C3.9457 28.936 4.02297 29.1252 4.13556 29.2934C4.36875 29.6356 4.72456 29.8751 5.12939 29.9623C5.53422 30.0496 5.9571 29.9779 6.31056 29.7621L15 24.4191L23.6895 29.7628C24.0429 29.9787 24.4658 30.0505 24.8707 29.9632C25.2755 29.876 25.6313 29.6364 25.8645 29.2941C25.9771 29.1259 26.0543 28.9367 26.0916 28.7378C26.1288 28.5389 26.1253 28.3345 26.0813 28.137C26.0366 27.9349 25.9514 27.7441 25.8308 27.576C25.7103 27.4079 25.5568 27.266 25.3798 27.1589L17.962 22.5977L25.8919 17.7227C26.3084 17.6126 26.6806 17.5069 27.0021 17.4108C27.2161 17.3479 27.4148 17.2414 27.5856 17.098C27.7565 16.9546 27.8959 16.7774 27.9949 16.5776C28.0955 16.3764 28.154 16.1569 28.1669 15.9323C28.1798 15.7078 28.1468 15.483 28.0699 15.2716ZM7.88087 10.332H22.1192V15.1999C19.7714 15.6393 17.3885 15.864 15 15.8714C12.6115 15.864 10.2286 15.6393 7.88087 15.1999V10.332ZM22.9395 0.820313H24.4629V14.6953L24.4531 14.6977C23.9585 14.8193 23.452 14.9334 22.9395 15.0387V0.820313ZM22.1192 2.40234V9.51164H7.88087V2.40234H22.1192ZM5.53712 0.820313H7.06056V15.0389C6.55079 14.9341 6.04712 14.8207 5.55517 14.6998L5.53712 14.6953V0.820313ZM5.88071 29.0625C5.70913 29.1687 5.50331 29.2049 5.3058 29.1636C5.10829 29.1223 4.93419 29.0068 4.81946 28.8408C4.76805 28.7641 4.7327 28.6779 4.71554 28.5872C4.69838 28.4965 4.69977 28.4033 4.71962 28.3132C4.74099 28.2188 4.78127 28.1297 4.83803 28.0512C4.89478 27.9728 4.96684 27.9067 5.04985 27.8569L12.8203 23.0794L13.9327 23.7633L14.216 23.9374L5.88071 29.0625ZM25.2804 28.3125C25.3003 28.4026 25.3016 28.4958 25.2845 28.5865C25.2673 28.6772 25.232 28.7634 25.1806 28.8401C25.0658 29.0061 24.8917 29.1217 24.6941 29.163C24.4965 29.2042 24.2906 29.1679 24.1191 29.0616L15.2154 23.5882L13.0357 22.2485L6.62157 18.3047C7.73134 18.5271 8.98876 18.7343 10.3622 18.8883L14.7846 21.607L16.9643 22.9467L24.9497 27.8564C25.0329 27.9064 25.1051 27.9727 25.1619 28.0513C25.2187 28.1299 25.2591 28.2193 25.2804 28.3139V28.3125ZM12.1988 19.0547C13.0981 19.1166 14.0339 19.1524 15 19.1524C15.9661 19.1524 16.902 19.1166 17.8013 19.0547L15 20.7764L12.1988 19.0547ZM17.1797 22.1161L15.7831 21.2578L19.6378 18.8878C21.0106 18.7338 22.2687 18.5266 23.3784 18.3042L17.1797 22.1161ZM27.2627 16.2084C27.2134 16.308 27.144 16.3963 27.059 16.4678C26.9739 16.5393 26.875 16.5925 26.7684 16.624C23.868 17.4797 20.8831 18.0171 17.8664 18.2269C16.9125 18.2956 15.957 18.3305 15 18.3314C11.8643 18.3231 8.73939 17.9651 5.68313 17.2638C4.85977 17.0763 4.04251 16.8654 3.23251 16.624C3.12595 16.5925 3.02704 16.5393 2.94198 16.4678C2.85692 16.3963 2.78755 16.308 2.73821 16.2084C2.67503 16.0833 2.64487 15.9441 2.6506 15.804C2.65632 15.664 2.69775 15.5277 2.77093 15.4082C2.84412 15.2886 2.94664 15.1897 3.06877 15.1209C3.1909 15.0521 3.32858 15.0157 3.46876 15.015C3.54614 15.015 3.62311 15.0262 3.69728 15.0483C7.36986 16.1201 11.1743 16.6733 15 16.6917C18.826 16.6734 22.6306 16.1203 26.3034 15.0483C26.457 15.004 26.6202 15.0056 26.773 15.0528C26.9257 15.1 27.0613 15.1908 27.1631 15.3141C27.2649 15.4373 27.3285 15.5876 27.346 15.7465C27.3636 15.9054 27.3343 16.066 27.2618 16.2084H27.2627Z" fill="black"/>
<path d="M9.81445 7.9882H20.1855C20.2943 7.9882 20.3987 7.94499 20.4756 7.86807C20.5525 7.79115 20.5957 7.68683 20.5957 7.57805V4.33594C20.5957 4.22716 20.5525 4.12283 20.4756 4.04591C20.3987 3.96899 20.2943 3.92578 20.1855 3.92578H9.81445C9.70567 3.92578 9.60135 3.96899 9.52443 4.04591C9.44751 4.12283 9.4043 4.22716 9.4043 4.33594V7.57805C9.4043 7.68683 9.44751 7.79115 9.52443 7.86807C9.60135 7.94499 9.70567 7.9882 9.81445 7.9882ZM10.2246 4.74609H19.7754V7.16789H10.2246V4.74609Z" fill="black"/>
</svg>
