<svg width="26" height="30" viewBox="0 0 26 30" fill="none" xmlns="http://www.w3.org/2000/svg">
<path d="M22.6607 0H3.33928C2.00611 0 0.921448 1.08466 0.921448 2.41784V25.5195C0.921448 26.8526 2.00611 27.9374 3.33928 27.9374H3.37429V29.0198C3.37429 29.5601 3.81392 29.9999 4.35436 29.9999C4.8948 29.9999 5.33443 29.5601 5.33443 29.0198V27.9374H20.6656V29.0198C20.6656 29.5601 21.1052 29.9999 21.6456 29.9999C22.1859 29.9999 22.6257 29.5601 22.6257 29.0198V27.9374H22.6607C23.9937 27.9374 25.0785 26.8527 25.0785 25.5195V2.41784C25.0785 1.08466 23.9939 0 22.6607 0ZM3.33928 2.03547H9.88925C9.88785 2.05941 9.8856 2.08307 9.8856 2.10743C9.8856 2.74784 10.4048 3.26714 11.0452 3.26714H14.9547C15.5951 3.26714 16.1144 2.74798 16.1144 2.10743C16.1144 2.08321 16.112 2.05941 16.1106 2.03547H22.6607C22.8716 2.03547 23.0429 2.20712 23.0429 2.41784V8.61651H2.95692V2.41784C2.95692 2.20698 3.12843 2.03547 3.33928 2.03547ZM2.95692 17.2855V10.6518H9.89527C9.88952 10.6985 9.88574 10.7456 9.88574 10.7938C9.88574 11.4342 10.4049 11.9535 11.0453 11.9535H14.955C15.5954 11.9535 16.1144 11.4344 16.1144 10.7938C16.1144 10.7456 16.1106 10.6985 16.1049 10.6518H23.0433V17.2855H2.95692ZM22.6607 25.9019H3.33928C3.12843 25.9019 2.95692 25.7301 2.95692 25.5197V19.321H9.89527C9.88952 19.3676 9.88574 19.4148 9.88574 19.463C9.88574 20.1034 10.4049 20.6227 11.0453 20.6227H14.955C15.5954 20.6227 16.1144 20.1035 16.1144 19.463C16.1144 19.4148 16.1106 19.3676 16.1049 19.321H23.0433V25.5197C23.0431 25.7304 22.8716 25.9019 22.6607 25.9019Z" fill="black" stroke="#F8F8F8"/>
</svg>
