<svg width="30" height="20" viewBox="0 0 30 20" fill="none" xmlns="http://www.w3.org/2000/svg">
<path d="M29.0625 0.15625H0.9375C0.81318 0.15625 0.693951 0.205636 0.606044 0.293544C0.518136 0.381451 0.46875 0.50068 0.46875 0.625V2.5C0.46875 2.62432 0.518136 2.74355 0.606044 2.83146C0.693951 2.91936 0.81318 2.96875 0.9375 2.96875H2.34375V19.375C2.34375 19.4993 2.39314 19.6185 2.48104 19.7065C2.56895 19.7944 2.68818 19.8438 2.8125 19.8438H4.21875C4.34307 19.8438 4.4623 19.7944 4.55021 19.7065C4.63811 19.6185 4.6875 19.4993 4.6875 19.375V13.75H25.3125V19.375C25.3125 19.4993 25.3619 19.6185 25.4498 19.7065C25.5377 19.7944 25.6569 19.8438 25.7812 19.8438H27.1875C27.3118 19.8438 27.431 19.7944 27.519 19.7065C27.6069 19.6185 27.6562 19.4993 27.6562 19.375V2.96875H29.0625C29.1868 2.96875 29.306 2.91936 29.394 2.83146C29.4819 2.74355 29.5312 2.62432 29.5312 2.5V0.625C29.5312 0.50068 29.4819 0.381451 29.394 0.293544C29.306 0.205636 29.1868 0.15625 29.0625 0.15625ZM3.75 18.9062H3.28125V2.96875H3.75V18.9062ZM25.3125 12.8125H4.6875V6.71875H25.3125V12.8125ZM25.3125 5.78125H4.6875V2.96875H25.3125V5.78125ZM26.7188 18.9062H26.25V2.96875H26.7188V18.9062ZM28.5938 2.03125H1.40625V1.09375H28.5938V2.03125Z" fill="black"/>
<path d="M13.5938 4.84375H16.4062C16.5306 4.84375 16.6498 4.79436 16.7377 4.70646C16.8256 4.61855 16.875 4.49932 16.875 4.375C16.875 4.25068 16.8256 4.13145 16.7377 4.04354C16.6498 3.95564 16.5306 3.90625 16.4062 3.90625H13.5938C13.4694 3.90625 13.3502 3.95564 13.2623 4.04354C13.1744 4.13145 13.125 4.25068 13.125 4.375C13.125 4.49932 13.1744 4.61855 13.2623 4.70646C13.3502 4.79436 13.4694 4.84375 13.5938 4.84375Z" fill="black"/>
</svg>
