<svg width="30" height="28" viewBox="0 0 30 28" fill="none" xmlns="http://www.w3.org/2000/svg">
<path d="M29.9987 24.2797V7.63458C30.0404 6.14004 28.8626 4.8947 27.3681 4.85304C27.306 4.85129 27.2439 4.85171 27.1818 4.85423H21.2188V3.72023C21.2592 2.16505 20.0313 0.871537 18.4761 0.831135C18.4514 0.830505 18.4267 0.830155 18.402 0.830155H11.5976C10.0418 0.829594 8.78026 2.09033 8.77977 3.64607C8.77977 3.67079 8.78005 3.69551 8.78075 3.72016V4.85423H2.81778C1.32387 4.7931 0.0632696 5.95448 0.00207069 7.44832C-0.000450085 7.51036 -0.000870216 7.57247 0.000880326 7.63458V24.2797C-0.0395222 25.8349 1.18845 27.1284 2.74363 27.1688C2.76835 27.1694 2.79306 27.1698 2.81771 27.1698H27.1818C28.7376 27.1703 29.9991 25.9096 29.9996 24.3539C29.9997 24.3291 29.9993 24.3044 29.9987 24.2797ZM11.5225 2.2955C11.5474 2.29417 11.5725 2.29347 11.5976 2.29354H18.402C19.1496 2.29242 19.7564 2.89754 19.7576 3.64509C19.7576 3.67016 19.7569 3.69523 19.7556 3.72023V4.8543H10.2441V3.72023C10.2037 2.9738 10.776 2.3359 11.5225 2.2955ZM27.257 25.7045C27.232 25.7058 27.2069 25.7065 27.1819 25.7065H2.81778C2.07023 25.7076 1.46335 25.1025 1.46223 24.3549C1.46216 24.3298 1.46286 24.3048 1.46419 24.2798V19.4874C1.86542 19.7492 2.33925 19.8773 2.81778 19.8533H10.2441V21.9751C10.3118 22.4161 10.6769 22.7508 11.1221 22.7799H18.8776C19.3228 22.7508 19.6879 22.4161 19.7556 21.9751V19.8533H27.1819C27.6604 19.8774 28.1342 19.7493 28.5355 19.4874V24.2798C28.5758 25.0262 28.0034 25.6641 27.257 25.7045ZM11.7074 21.3165V17.6582H18.2923V21.3165H11.7074ZM27.257 18.3879C27.232 18.3893 27.2069 18.39 27.1819 18.3899H19.7555V16.8169C19.7555 16.4145 19.2799 16.1949 18.8775 16.1949H11.1221C10.7197 16.1949 10.2441 16.4145 10.2441 16.8169V18.3899H2.81778C2.07023 18.391 1.46335 17.7859 1.46223 17.0383C1.46216 17.0133 1.46286 16.9882 1.46419 16.9632V7.63458C1.42099 6.949 1.94174 6.35822 2.62732 6.31502C2.69076 6.31103 2.75448 6.31187 2.81778 6.31761H27.1819C27.866 6.25564 28.4708 6.76001 28.5328 7.44412C28.5386 7.50742 28.5394 7.57114 28.5354 7.63458V16.9631C28.5758 17.7096 28.0034 18.3475 27.257 18.3879Z" fill="black" stroke="#F8F8F8" stroke-width="0.5"/>
</svg>
