<svg width="25" height="25" viewBox="0 0 25 25" fill="none" xmlns="http://www.w3.org/2000/svg">
<g clip-path="url(#clip0)">
<path d="M18.2327 0H6.76726C3.03573 0 0 3.03573 0 6.76726V18.2329C0 21.9642 3.03573 25 6.76726 25H18.2329C21.9642 25 25 21.9642 25 18.2329V6.76726C25 3.03573 21.9642 0 18.2327 0V0ZM23.5343 18.2329C23.5343 21.1561 21.1561 23.5343 18.2327 23.5343H6.76726C3.84387 23.5343 1.4656 21.1561 1.4656 18.2329V6.76726C1.4656 3.84387 3.84387 1.4656 6.76726 1.4656H18.2329C21.1561 1.4656 23.5343 3.84387 23.5343 6.76726V18.2329Z" fill="white"/>
<path d="M12.4999 5.66425C8.73062 5.66425 5.66418 8.73068 5.66418 12.5C5.66418 16.2693 8.73062 19.3357 12.4999 19.3357C16.2692 19.3357 19.3357 16.2693 19.3357 12.5C19.3357 8.73068 16.2692 5.66425 12.4999 5.66425ZM12.4999 17.8701C9.53896 17.8701 7.12979 15.4611 7.12979 12.5C7.12979 9.53902 9.53896 7.12985 12.4999 7.12985C15.4611 7.12985 17.87 9.53902 17.87 12.5C17.87 15.4611 15.4611 17.8701 12.4999 17.8701Z" fill="white"/>
<path d="M19.4991 3.23657C18.3852 3.23657 17.4792 4.14275 17.4792 5.25645C17.4792 6.37034 18.3852 7.27652 19.4991 7.27652C20.613 7.27652 21.5192 6.37034 21.5192 5.25645C21.5192 4.14256 20.613 3.23657 19.4991 3.23657ZM19.4991 5.81072C19.1936 5.81072 18.9449 5.56201 18.9449 5.25645C18.9449 4.9507 19.1936 4.70218 19.4991 4.70218C19.8049 4.70218 20.0536 4.9507 20.0536 5.25645C20.0536 5.56201 19.8049 5.81072 19.4991 5.81072Z" fill="white"/>
<line x1="24.938" y1="11.5039" x2="32.938" y2="10.5039" stroke="black"/>
</g>
<defs>
<clipPath id="clip0">
<rect width="25" height="25" fill="white"/>
</clipPath>
</defs>
</svg>
