<svg width="29" height="9" viewBox="0 0 29 9" fill="none" xmlns="http://www.w3.org/2000/svg">
<mask id="mask0" mask-type="alpha" maskUnits="userSpaceOnUse" x="0" y="0" width="29" height="9">
<rect width="29" height="9" fill="#C4C4C4"/>
</mask>
<g mask="url(#mask0)">
<path fill-rule="evenodd" clip-rule="evenodd" d="M519.701 -660H526.299C527.421 -656.051 531.562 -653.121 536.5 -653.121C541.438 -653.121 545.579 -656.051 546.701 -660H554V9H546.701C545.579 5.05133 541.438 2.12085 536.5 2.12085C531.562 2.12085 527.421 5.05133 526.299 9H519.701C518.579 5.05133 514.438 2.12085 509.5 2.12085C504.563 2.12085 500.421 5.05133 499.299 9H488.701C487.579 5.05133 483.437 2.12085 478.5 2.12085C473.563 2.12085 469.421 5.05133 468.299 9H459.701C458.579 5.05133 454.437 2.12085 449.5 2.12085C444.563 2.12085 440.421 5.05133 439.299 9H430.701C429.579 5.05133 425.437 2.12085 420.5 2.12085C415.563 2.12085 411.421 5.05133 410.299 9H401.701C400.579 5.05133 396.437 2.12085 391.5 2.12085C386.563 2.12085 382.421 5.05133 381.299 9H372.701C371.579 5.05133 367.437 2.12085 362.5 2.12085C357.563 2.12085 353.421 5.05133 352.299 9H343.701C342.579 5.05133 338.437 2.12085 333.5 2.12085C328.563 2.12085 324.421 5.05133 323.299 9H314.701C313.579 5.05133 309.437 2.12085 304.5 2.12085C299.563 2.12085 295.421 5.05133 294.299 9H285.701C284.579 5.05133 280.437 2.12085 275.5 2.12085C270.563 2.12085 266.421 5.05133 265.299 9H256.701C255.579 5.05133 251.437 2.12085 246.5 2.12085C241.563 2.12085 237.421 5.05133 236.299 9H227.701C226.579 5.05133 222.437 2.12085 217.5 2.12085C212.563 2.12085 208.421 5.05133 207.299 9H198.701C197.579 5.05133 193.437 2.12085 188.5 2.12085C183.563 2.12085 179.421 5.05133 178.299 9H169.701C168.579 5.05133 164.437 2.12085 159.5 2.12085C154.563 2.12085 150.421 5.05133 149.299 9H140.701C139.579 5.05133 135.437 2.12085 130.5 2.12085C125.563 2.12085 121.421 5.05133 120.299 9H111.701C110.579 5.05133 106.437 2.12085 101.5 2.12085C96.5625 2.12085 92.421 5.05133 91.2995 9H82.7005C81.579 5.05133 77.4375 2.12085 72.5 2.12085C67.5625 2.12085 63.421 5.05133 62.2995 9H53.7005C52.579 5.05133 48.4375 2.12085 43.5 2.12085C38.5625 2.12085 34.421 5.05133 33.2995 9H24.7005C23.579 5.05133 19.4375 2.12085 14.5 2.12085C9.56252 2.12085 5.42102 5.05133 4.29945 9H-2V-660H4.29945C5.42101 -656.051 9.56251 -653.121 14.5 -653.121C19.4375 -653.121 23.579 -656.051 24.7006 -660H33.2994C34.421 -656.051 38.5625 -653.121 43.5 -653.121C48.4375 -653.121 52.579 -656.051 53.7006 -660H62.2994C63.421 -656.051 67.5625 -653.121 72.5 -653.121C77.4375 -653.121 81.579 -656.051 82.7006 -660H91.2994C92.421 -656.051 96.5625 -653.121 101.5 -653.121C106.437 -653.121 110.579 -656.051 111.701 -660H120.299C121.421 -656.051 125.563 -653.121 130.5 -653.121C135.437 -653.121 139.579 -656.051 140.701 -660H149.299C150.421 -656.051 154.563 -653.121 159.5 -653.121C164.437 -653.121 168.579 -656.051 169.701 -660H178.299C179.421 -656.051 183.563 -653.121 188.5 -653.121C193.437 -653.121 197.579 -656.051 198.701 -660H207.299C208.421 -656.051 212.563 -653.121 217.5 -653.121C222.437 -653.121 226.579 -656.051 227.701 -660H236.299C237.421 -656.051 241.563 -653.121 246.5 -653.121C251.437 -653.121 255.579 -656.051 256.701 -660H265.299C266.421 -656.051 270.563 -653.121 275.5 -653.121C280.437 -653.121 284.579 -656.051 285.701 -660H294.299C295.421 -656.051 299.563 -653.121 304.5 -653.121C309.437 -653.121 313.579 -656.051 314.701 -660H323.299C324.421 -656.051 328.563 -653.121 333.5 -653.121C338.437 -653.121 342.579 -656.051 343.701 -660H352.299C353.421 -656.051 357.563 -653.121 362.5 -653.121C367.437 -653.121 371.579 -656.051 372.701 -660H381.299C382.421 -656.051 386.563 -653.121 391.5 -653.121C396.437 -653.121 400.579 -656.051 401.701 -660H410.299C411.421 -656.051 415.563 -653.121 420.5 -653.121C425.437 -653.121 429.579 -656.051 430.701 -660H439.299C440.421 -656.051 444.563 -653.121 449.5 -653.121C454.437 -653.121 458.579 -656.051 459.701 -660H468.299C469.421 -656.051 473.563 -653.121 478.5 -653.121C483.437 -653.121 487.579 -656.051 488.701 -660H499.299C500.421 -656.051 504.563 -653.121 509.5 -653.121C514.438 -653.121 518.579 -656.051 519.701 -660Z" fill="#BD1515" fill-opacity="0.05"/>
</g>
</svg>
