<svg width="37" height="35" viewBox="0 0 37 35" fill="none" xmlns="http://www.w3.org/2000/svg">
<path d="M37 18.0657C37 30.0843 31.2053 35 18.5 35C5.7947 35 0 30.0843 0 18.0657C0 6.04721 5.7947 0 18.5 0C31.2053 0 37 6.04721 37 18.0657Z" fill="#BD1515"/>
<path d="M27.5038 10.0662L24.1998 25.8275C24.1339 25.9796 24.0345 26.1166 23.9082 26.2295C23.782 26.3424 23.6318 26.4287 23.4676 26.4825C23.3035 26.5363 23.1291 26.5565 22.9561 26.5417C22.783 26.5269 22.6153 26.4775 22.464 26.3967L14.8386 20.8773L12.0671 19.6113L7.39923 18.1107C7.39923 18.1107 6.66987 17.8692 6.61517 17.3449C6.56047 16.8205 7.42111 16.5377 7.42111 16.5377L25.9758 9.6591C25.9758 9.6591 27.5038 9.02437 27.5038 10.0731" fill="white"/>
<path d="M14.2552 25.6515C14.2552 25.6515 14.0327 25.6308 13.7519 24.7995C13.4711 23.9681 12.0671 19.5974 12.0671 19.5974L14.8642 20.7323L14.2552 25.6515Z" fill="white"/>
<path d="M17.7633 22.9847L14.7474 25.5857C14.6772 25.6337 14.5957 25.6648 14.5099 25.6762C14.4241 25.6876 14.3366 25.6791 14.2551 25.6513L14.8313 20.8218" fill="white"/>
<path d="M23.8972 12.8635C23.9227 12.4944 23.2736 12.8635 23.2736 12.8635L12.698 19.2143C13.2158 20.8184 13.792 22.6639 14.3937 24.4612L14.8642 20.7321C14.8642 20.7321 23.3392 13.5431 23.6674 13.2361C23.9957 12.9291 23.8972 12.8635 23.8972 12.8635Z" fill="#3B7FCD"/>
</svg>
