<svg width="25" height="25" viewBox="0 0 25 25" fill="none" xmlns="http://www.w3.org/2000/svg">
<g clip-path="url(#clip0)">
<path d="M24.7921 4.56756C24.6246 4.45404 24.4028 4.46019 24.241 4.58223C24.0286 4.74306 23.6833 4.87077 23.3115 4.96916C24.2798 3.88404 24.3006 3.15936 24.2902 2.99285C24.2793 2.82067 24.1757 2.66788 24.0196 2.59456C23.863 2.52077 23.6795 2.53875 23.54 2.63997C22.4506 3.43182 21.3654 3.5988 20.7202 3.61583C19.7297 2.66788 18.4436 2.1485 17.0746 2.1485C14.1437 2.1485 11.7597 4.56473 11.7597 7.53439C11.7597 7.78983 11.7776 8.04479 11.8131 8.29739C6.73375 8.24015 2.60895 3.37317 2.56637 3.32255C2.46704 3.2043 2.31661 3.14091 2.16241 3.15463C2.0082 3.16787 1.87055 3.25538 1.79345 3.38972C0.331789 5.92515 1.31001 8.15217 2.20403 9.42745C2.04604 9.34325 1.91785 9.26 1.84122 9.20371C1.69931 9.09775 1.50963 9.08025 1.34975 9.15877C1.19033 9.23729 1.08863 9.39812 1.08532 9.57551C1.04606 11.9917 2.20876 13.3758 3.3024 14.1412C3.15671 14.1275 3.00865 14.1814 2.90743 14.2916C2.7939 14.4151 2.75369 14.5896 2.80289 14.75C3.55831 17.2225 5.41306 18.0626 6.59326 18.3478C4.16663 20.2371 0.595266 19.6288 0.556004 19.6221C0.340304 19.5838 0.127441 19.6974 0.039458 19.8975C-0.0480522 20.0971 0.0115493 20.3312 0.185624 20.4637C2.74707 22.4187 5.81087 22.8515 8.0237 22.8515C9.69774 22.8515 10.8855 22.6036 10.999 22.5786C22.2089 19.922 22.5244 9.65403 22.4984 7.97147C24.6028 6.01456 24.9316 5.26906 24.9822 5.08458C25.0366 4.88922 24.96 4.68109 24.7921 4.56756ZM21.6994 7.42229C21.5939 7.51926 21.5386 7.6588 21.548 7.80213C21.5778 8.25623 22.1511 18.9642 10.7904 21.6562C10.7389 21.667 6.22288 22.6093 2.3081 20.6699C3.96228 20.624 6.33404 20.1907 7.98633 18.3355C8.11121 18.196 8.14148 17.9954 8.0639 17.8251C7.98727 17.6562 7.8184 17.5479 7.63345 17.5479C7.63203 17.5479 7.63014 17.5479 7.62872 17.5479C7.60507 17.5631 5.1212 17.5451 3.98404 15.1823C4.44193 15.2083 5.00672 15.1799 5.45657 14.9728C5.642 14.8871 5.75127 14.6927 5.72856 14.4898C5.70586 14.2873 5.55544 14.1223 5.35582 14.0802C5.22857 14.0532 2.46325 13.4349 2.07632 10.4184C2.49589 10.602 3.03278 10.7519 3.56352 10.671C3.7461 10.6436 3.89558 10.5126 3.94714 10.3352C3.9987 10.1578 3.94241 9.9667 3.80287 9.84561C3.68461 9.74249 1.08769 7.43459 2.31898 4.45782C3.65576 5.86035 7.615 9.50503 12.412 9.22973C12.5525 9.22168 12.6825 9.15073 12.7663 9.0372C12.8495 8.92368 12.8779 8.77893 12.8439 8.64223C12.753 8.28036 12.7067 7.90761 12.7067 7.53487C12.7067 5.08647 14.6669 3.09503 17.076 3.09503C18.2543 3.09503 19.3598 3.56522 20.1881 4.41951C20.2751 4.50938 20.3948 4.56094 20.5197 4.56331C21.0211 4.5704 21.8451 4.51127 22.776 4.13805C22.5073 4.47248 22.1128 4.87314 21.5324 5.32914C21.3683 5.45827 21.3082 5.67918 21.3844 5.87359C21.4605 6.06848 21.6573 6.191 21.8626 6.17255C21.9728 6.16356 22.5348 6.11436 23.17 5.97671C22.8228 6.34946 22.3484 6.82533 21.6994 7.42229Z" fill="white"/>
</g>
<defs>
<clipPath id="clip0">
<rect width="25" height="25" fill="white"/>
</clipPath>
</defs>
</svg>
